<?xml version="1.0" encoding="UTF-8" standalone="no"?>
<svg
   xmlns:dc="http://purl.org/dc/elements/1.1/"
   xmlns:cc="http://creativecommons.org/ns#"
   xmlns:rdf="http://www.w3.org/1999/02/22-rdf-syntax-ns#"
   xmlns:svg="http://www.w3.org/2000/svg"
   xmlns="http://www.w3.org/2000/svg"
   xmlns:sodipodi="http://sodipodi.sourceforge.net/DTD/sodipodi-0.dtd"
   xmlns:inkscape="http://www.inkscape.org/namespaces/inkscape"
   version="1.1"
   width="343.4502"
   height="68.209763"
   id="svg2"
   inkscape:version="0.48.4 r9939"
   sodipodi:docname="rule7.svg"
   inkscape:export-filename="G:\work\redaction\website\Titarl\fig\rule7.png"
   inkscape:export-xdpi="91.716354"
   inkscape:export-ydpi="91.716354">
  <sodipodi:namedview
     pagecolor="#ffffff"
     bordercolor="#666666"
     borderopacity="1"
     objecttolerance="10"
     gridtolerance="10"
     guidetolerance="10"
     inkscape:pageopacity="0"
     inkscape:pageshadow="2"
     inkscape:window-width="1920"
     inkscape:window-height="1018"
     id="namedview38"
     showgrid="false"
     inkscape:zoom="2.9792766"
     inkscape:cx="125.22032"
     inkscape:cy="26.994141"
     inkscape:window-x="-8"
     inkscape:window-y="32"
     inkscape:window-maximized="1"
     inkscape:current-layer="svg2"
     fit-margin-top="0"
     fit-margin-left="0"
     fit-margin-right="0"
     fit-margin-bottom="0" />
  <metadata
     id="metadata40">
    <rdf:RDF>
      <cc:Work
         rdf:about="">
        <dc:format>image/svg+xml</dc:format>
        <dc:type
           rdf:resource="http://purl.org/dc/dcmitype/StillImage" />
        <dc:title></dc:title>
      </cc:Work>
    </rdf:RDF>
  </metadata>
  <defs
     id="defs4">
    <marker
       style="overflow:visible"
       id="Arrow1Mend"
       orient="auto"
       refY="0"
       refX="0">
      <path
         id="path7"
         style="fill-rule:evenodd;stroke:#000000;stroke-width:1pt;marker-start:none"
         transform="matrix(-0.4,0,0,-0.4,-4,0)"
         d="M 0,0 5,-5 -12.5,0 5,5 0,0 z"
         inkscape:connector-curvature="0" />
    </marker>
    <marker
       orient="auto"
       markerHeight="6"
       markerWidth="6"
       refY="6"
       refX="6"
       viewBox="0 0 12 12"
       id="Dot"
       style="fill:#ffffff;stroke:#000000;stroke-width:2">
      <circle
         id="circle10"
         r="5"
         cy="6"
         cx="6"
         sodipodi:cx="6"
         sodipodi:cy="6"
         sodipodi:rx="5"
         sodipodi:ry="5" />
    </marker>
  </defs>
  <text
     id="text12"
     dy="7"
     style="font-size:14px;text-anchor:end;fill:#000000;stroke:none;font-family:Times New Roman"
     y="34.215626"
     x="216.00781" />
  <text
     id="text14"
     dy="7"
     style="font-size:14px;text-anchor:end;fill:#000000;stroke:none;font-family:Times New Roman"
     y="34.215626"
     x="10.007813">A</text>
  <line
     id="line20"
     style="fill:none;stroke:#000000;stroke-width:1"
     y2="29.715626"
     x2="196.00781"
     y1="31.215626"
     x1="196.00781" />
  <text
     id="text22"
     style="font-size:11.19999981px;text-anchor:middle;fill:#000000;stroke:none;font-family:Times New Roman"
     y="2.2156248"
     x="196.00781">10</text>
  <line
     id="line24"
     style="fill:none;stroke:#000000;stroke-width:1"
     y2="29.715626"
     x2="111.00778"
     y1="31.215626"
     x1="111.00778" />
  <text
     id="text26"
     dy="11.2"
     style="font-size:11.19999981px;text-anchor:middle;fill:#000000;stroke:none;font-family:Times New Roman"
     y="-9.7843752"
     x="111.00778">5</text>
  <line
     id="line28"
     style="fill:none;stroke:#000000;stroke-width:1"
     y2="29.715626"
     x2="26.007812"
     y1="31.215626"
     x1="26.007812" />
  <text
     id="text30"
     style="font-size:11.19999981px;text-anchor:middle;fill:#000000;stroke:none;font-family:Times New Roman"
     y="2.2156248"
     x="26.007813">0</text>
  <line
     id="line32"
     style="fill:none;stroke:#000000;stroke-width:3;marker-end:url(#Arrow1Mend)"
     y2="34.215626"
     x2="206.00781"
     y1="34.215626"
     x1="16.007812" />
  <text
     id="text34"
     dy="7"
     style="font-size:14px;text-anchor:start;fill:#000000;stroke:none;font-family:Times New Roman"
     y="34.215626"
     x="216.00781">B</text>
  <text
     id="text36"
     dy="7"
     style="font-size:14px;text-anchor:start;fill:#000000;stroke:none;font-family:Times New Roman"
     y="58.215626"
     x="216.00781">conf:100% supp:100%</text>
  <path
     id="path3751"
     title="exp(-x/3)"
     d="m 26.217193,8.0156739 c 2.98246,1.2304028 5.96491,2.3532501 8.94737,3.3858481 2.98245,1.032599 5.96491,1.974586 8.94737,2.841028 2.98245,0.866441 5.96491,1.656853 8.94737,2.383874 2.98245,0.727023 5.96491,1.390247 8.94736,2.000284 2.98246,0.610036 5.96492,1.166541 8.94737,1.678415 2.98246,0.511875 5.96491,0.978832 8.94737,1.40834 2.98246,0.429508 5.964909,0.821326 8.947369,1.181722 2.98246,0.360396 5.96491,0.689166 8.94737,0.991571 2.982448,0.302403 5.964908,0.578271 8.947368,0.832015 2.98245,0.253744 5.96491,0.485221 8.94736,0.698134 2.98246,0.212914 5.96492,0.407145 8.94737,0.585798 2.98246,0.178654 5.96491,0.341629 8.94737,0.491536 2.98246,0.149906 5.96491,0.286657 8.94737,0.412442 2.98246,0.125787 5.96491,0.240532 8.94737,0.346076 2.98245,0.105545 5.96491,0.201827 8.94737,0.290389 2.98245,0.08856 5.96491,0.169351 8.94736,0.243662 2.98246,0.0743 5.96492,0.1421 8.94737,0.204454 2.98246,0.06235 5.96492,0.119236 8.94737,0.171554 2.98246,0.05232 5.96491,0.100047 8.94737,0.519271 L 26.217192,29.057408 z"
     style="fill:#ff6101;fill-opacity:1;stroke:#7a2e00;stroke-width:1"
     inkscape:connector-curvature="0"
     sodipodi:nodetypes="cssssssssssssssssssccc" />
</svg>
